HIERARCHY
ROOT Hips
{
     OFFSET 1.88212 96.90440 -13.34250
     CHANNELS 6 Xposition Yposition Zposition Zrotation Xrotation Yrotation
     JOINT Spine
     {
          OFFSET 0.00000 11.89050 0.00000
          CHANNELS 3 Zrotation Xrotation Yrotation
          JOINT Spine1
          {
               OFFSET -0.00000 25.65740 0.12766
               CHANNELS 3 Zrotation Xrotation Yrotation
               JOINT HEad
               {
                    OFFSET 0.00000 8.73416 0.01134
                    CHANNELS 3 Zrotation Xrotation Yrotation
                    End Site
                    {
                         OFFSET -0.29000 12.77420 2.51395
                    }
               }
               JOINT LeftShoulder1
               {
                    OFFSET 8.99000 -0.36225 -0.22000
                    CHANNELS 3 Zrotation Xrotation Yrotation
                    JOINT LeftArm
                    {
                         OFFSET 10.28270 -0.00338 0.32212
                         CHANNELS 3 Zrotation Xrotation Yrotation
                         JOINT LeftForeArm
                         {
                              OFFSET 32.76690 0.09914 -1.42434
                              CHANNELS 3 Zrotation Xrotation Yrotation
                              JOINT LeftHand
                              {
                                   OFFSET 27.56430 0.08536 1.02216
                                   CHANNELS 3 Zrotation Xrotation Yrotation
                                   End Site
                                   {
                                        OFFSET 16.74430 -0.60000 1.50291
                                   }
                              }
                         }
                    }
               }
               JOINT RightShoulder
               {
                    OFFSET -8.99000 -0.36225 -0.22000
                    CHANNELS 3 Zrotation Xrotation Yrotation
                    JOINT RightArm
                    {
                         OFFSET -10.28270 -0.00338 0.32212
                         CHANNELS 3 Zrotation Xrotation Yrotation
                         JOINT RightForeArm
                         {
                              OFFSET -32.89710 0.09914 -1.42434
                              CHANNELS 3 Zrotation Xrotation Yrotation
                              JOINT RightHand
                              {
                                   OFFSET -27.49210 0.08536 1.02216
                                   CHANNELS 3 Zrotation Xrotation Yrotation
                                   End Site
                                   {
                                        OFFSET -16.63120 -0.60000 1.50291
                                   }
                              }
                         }
                    }
               }
          }
     }
     JOINT LeftUpLeg
     {
          OFFSET 8.94580 -8.66707 0.10165
          CHANNELS 3 Zrotation Xrotation Yrotation
          JOINT LeftLeg
          {
               OFFSET 0.00000 -44.42270 1.37270
               CHANNELS 3 Zrotation Xrotation Yrotation
               JOINT LeftFoot
               {
                    OFFSET -0.25355 -42.09240 -1.46059
                    CHANNELS 3 Zrotation Xrotation Yrotation
                    JOINT LeftToes
                    {
                         OFFSET -0.04000 -4.41509 8.49910
                         CHANNELS 3 Zrotation Xrotation Yrotation
                         End Site
                         {
                              OFFSET 0.08000 -0.04745 9.77979
                         }
                    }
               }
          }
     }
     JOINT RightUpLeg
     {
          OFFSET -8.94580 -8.66707 0.10165
          CHANNELS 3 Zrotation Xrotation Yrotation
          JOINT RightLeg
          {
               OFFSET 0.00000 -44.42270 1.37270
               CHANNELS 3 Zrotation Xrotation Yrotation
               JOINT RightFoot
               {
                    OFFSET 0.25355 -42.09240 -1.46059
                    CHANNELS 3 Zrotation Xrotation Yrotation
                    JOINT RightToes
                    {
                         OFFSET 0.04000 -4.41509 8.49910
                         CHANNELS 3 Zrotation Xrotation Yrotation
                         End Site
                         {
                              OFFSET -0.08000 -0.13745 9.77979
                         }
                    }
               }
          }
     }
}
MOTION
Frames: 15
Frame Time: 0.01667
31.36595 94.99560 -2.56952 10.23956 19.93476 -172.10281 11.36914 11.72671 -8.26570 -0.00516 0.00979 -0.00165 8.45877 3.75368 -20.73935 1.14708 13.29228 6.04663 -82.42561 -17.61510 -84.18317 -37.84995 34.36734 -79.66436 14.77624 9.29184 -11.82748 13.55896 14.80739 2.36033 87.99791 -27.40917 84.83585 6.59556 25.14916 86.16149 15.84757 10.52103 4.85438 13.73424 4.60277 -18.67499 -20.17637 -4.53382 58.27555 -20.85302 0.00110 0.01159 28.43610 -3.98907 -72.53608 2.97891 27.88560 2.87291 27.30454 27.64581 -25.14259 2.99485 0.48513 -0.29554 -15.46906 48.16473 17.70372 
31.60320 95.78966 -3.02418 11.18228 23.41761 -169.26826 12.91422 13.89947 -10.74380 -0.00194 0.01226 -0.00659 9.15744 8.21051 -22.26091 1.06409 13.29326 5.42855 -82.96453 -16.36094 -81.86584 -38.84222 34.53145 -80.00820 13.91484 10.48735 -12.19450 16.41161 14.76670 0.63243 85.76788 -28.36610 82.50286 6.83719 25.03671 86.61992 15.97860 10.90582 5.12671 15.91513 7.56401 -22.45396 -19.69021 -4.62477 58.07075 -24.07096 0.00338 0.01169 30.89873 -3.79174 -71.98160 4.83915 24.74284 -2.44067 32.29830 37.50677 -22.76664 1.04185 0.19412 -0.10580 -7.60033 41.91358 8.17091 
31.84721 96.58104 -3.51526 11.94401 26.72452 -166.75841 14.08979 15.68756 -12.57312 0.00184 0.01413 -0.01091 10.37805 12.55361 -24.07357 1.15805 13.54840 4.54138 -83.05202 -15.12039 -79.84415 -39.26233 34.88449 -80.45135 26.63547 -4.29345 -14.89612 19.55632 14.75677 -1.45796 83.39011 -29.43115 79.95815 7.07955 24.94326 87.21767 16.07302 11.18331 5.35567 18.22230 10.23970 -25.92526 -19.22173 -4.52988 57.90485 -27.20060 0.00623 0.01059 33.16101 -3.82752 -71.45248 5.23676 20.23452 -7.42805 37.78120 47.32270 -21.35875 -0.95796 0.19867 -0.06547 -0.92840 43.46008 0.54242 
32.08101 97.29590 -3.97245 12.54303 29.88773 -164.54178 14.91574 17.17761 -13.81898 0.00552 0.01594 -0.01434 12.08571 16.74366 -26.15129 1.51033 14.05296 3.51175 -82.93909 -13.78675 -78.01855 -39.24842 35.30958 -81.00766 19.13604 7.97031 -14.02248 22.90283 14.76762 -3.79732 80.92299 -30.61802 77.31636 7.33667 24.88191 87.94299 16.22385 11.45368 5.75236 20.56515 12.64867 -29.11882 -18.79318 -4.26826 57.80883 -30.13818 0.00924 0.00941 35.20889 -4.08308 -71.03368 4.22058 14.67573 -12.18297 45.03725 57.16750 -23.19414 -2.42293 0.17375 -0.03777 4.03589 40.61159 -5.38695 
32.28546 97.87930 -4.32601 12.99688 32.93555 -162.59756 15.45470 18.43742 -14.54279 0.00893 0.01839 -0.01675 14.22485 20.73298 -28.48559 2.22963 14.81198 2.39480 -82.81963 -12.53703 -76.46427 -39.13057 35.38721 -81.71793 23.41144 0.55541 -15.31527 26.39217 14.81833 -6.29435 78.41447 -31.94299 74.70224 7.63462 24.86089 88.75000 16.34485 11.53755 6.06876 22.89040 14.82200 -32.05819 -18.60357 -4.17707 57.79877 -30.02395 0.00366 0.00306 34.59805 -4.49908 -70.78105 1.81828 8.36455 -16.84850 54.82289 64.98814 -29.64683 -2.07164 0.00612 -0.04362 5.50208 40.34374 -8.84019 
32.44759 98.28021 -4.53833 13.31787 35.89128 -160.91022 15.80065 19.51978 -14.80494 0.01259 0.02171 -0.01818 16.72289 24.47211 -31.07781 3.24675 15.82930 1.25355 -82.77280 -11.27617 -75.15261 -38.90509 35.48343 -82.42621 18.69187 7.92368 -14.24421 29.97998 14.93414 -8.88948 75.91759 -33.39121 72.22591 7.97451 24.89713 89.57954 16.48173 11.51522 6.41737 25.13606 16.78742 -34.75951 -18.44540 -3.96826 57.92041 -29.63924 0.00251 0.00171 33.79979 -5.03174 -70.72222 -2.01467 1.53596 -21.59467 69.77190 70.88554 -42.82283 -2.81369 0.03106 -0.00889 -1.67618 26.31433 -5.57875 
32.56420 98.43399 -4.62820 13.50282 38.76569 -159.46115 16.04561 20.46543 -14.66579 0.01579 0.02599 -0.01892 19.50357 27.91519 -33.92495 4.54576 17.08874 0.06044 -82.84618 -10.16030 -74.09081 -38.69774 35.45196 -83.11245 21.18173 3.85430 -14.93752 33.60046 15.11212 -11.55096 73.50095 -34.91674 69.95377 8.33954 25.00314 90.36898 16.56632 11.38092 6.66881 27.24680 18.58403 -37.23277 -18.36802 -3.71827 58.19093 -28.92353 0.00059 0.00033 32.86959 -5.64654 -70.84253 -7.38431 -5.57028 -26.62217 91.31347 74.21027 -63.79493 -3.20838 0.02954 -0.00576 -4.26641 17.77093 -3.83098 
32.65209 98.25829 -4.66989 13.51701 41.56460 -158.21046 16.75032 22.40351 -13.98811 0.03412 0.12450 0.01114 22.22078 29.67300 -36.90288 5.78549 17.15118 -1.46556 -82.92773 -9.17250 -73.13461 -38.47704 35.55835 -83.72439 18.08869 8.21630 -14.02387 36.70838 13.96243 -13.88458 71.26474 -36.36269 67.84141 8.71644 25.16071 91.11976 16.60416 11.41732 7.01784 29.17281 20.25817 -39.48358 -18.41339 -3.39755 58.60458 -27.93358 -0.00251 -0.00083 31.85469 -6.37456 -71.09540 -14.51207 -12.53982 -32.08766 111.14683 74.36658 -85.24027 -13.98922 -0.20068 0.60695 3.02885 12.24726 -0.44360 
32.72982 97.74975 -4.78732 13.29626 44.27172 -157.08205 17.23039 23.99947 -13.12813 0.01324 0.02543 -0.02438 25.06892 31.58663 -39.94736 6.91930 17.58702 -2.98589 -82.92432 -8.53315 -72.16681 -38.32858 35.66201 -84.25131 19.61934 5.83107 -14.89243 39.33938 13.12075 -16.15955 69.30843 -37.70355 65.78801 9.08519 25.30311 91.77078 16.52151 11.73495 7.48714 30.88129 21.85682 -41.51646 -18.61761 -2.92444 59.12586 -26.80867 -0.00630 -0.00095 30.77856 -7.29550 -71.42619 -23.51594 -18.90615 -38.00751 120.83945 73.11475 -96.90169 -12.78632 0.00143 -0.10421 -1.10727 8.55145 5.51662 
32.79328 97.01151 -5.06353 12.77952 46.86293 -155.97951 17.36395 25.27176 -12.17694 0.01194 0.02075 -0.02664 27.94063 33.36102 -42.94838 7.81477 17.98162 -4.50451 -82.83592 -8.18324 -71.16189 -38.23648 35.85104 -84.65611 17.72432 8.29064 -14.69513 41.28975 12.27435 -18.22297 67.67254 -38.86668 63.86937 9.44245 25.36784 92.28315 16.37432 12.20752 8.04045 32.37790 23.42539 -43.34816 -19.00821 -2.24291 59.70744 -25.68964 -0.00981 0.00001 29.64297 -8.48148 -71.80500 -34.14550 -24.24102 -44.13739 122.64623 71.79021 -100.47250 -19.00310 -0.24800 0.61739 2.62259 6.63915 9.95403 
32.82536 96.19437 -5.52833 11.94245 49.32127 -154.81967 17.08358 26.23172 -11.20735 0.00965 0.02172 -0.02694 30.81883 35.10201 -45.84016 8.52663 18.41450 -5.92253 -82.73269 -8.08735 -70.19263 -38.24017 36.01653 -84.96004 18.52256 6.79006 -15.58817 42.66884 11.58473 -20.07708 66.34267 -39.84798 62.23377 9.78981 25.32734 92.65426 16.18321 12.63834 8.54188 33.70696 24.99378 -45.00565 -19.59521 -1.33616 60.30863 -24.67438 -0.01215 0.00142 28.44364 -9.96577 -72.22462 -45.73540 -28.30432 -49.85582 118.23269 70.17101 -96.66059 -19.95149 -0.06018 0.16659 1.38541 5.33550 13.59516 
32.85389 95.49496 -6.30052 10.80271 51.65463 -153.53392 16.34205 26.85833 -10.28698 0.00493 0.01858 -0.02880 32.34070 35.97520 -47.87395 8.94726 18.73067 -7.16564 -82.55112 -8.15440 -69.17673 -38.29822 36.17173 -85.15857 17.44041 8.25873 -15.89277 43.84061 10.85012 -21.86167 65.70683 -41.05541 64.92879 12.04400 25.41159 89.00503 15.84009 13.15568 9.21457 35.00888 26.59844 -46.55913 -20.36804 -0.21455 60.87223 -23.85201 -0.01260 0.00262 27.16430 -11.75201 -72.68224 -57.44630 -31.29417 -54.51151 109.74120 67.57781 -88.16241 -21.52751 -0.05681 0.23448 3.08387 5.61633 11.70849 
32.92701 95.10900 -7.49135 9.41809 53.89730 -152.08986 15.15812 27.13018 -9.46997 0.00416 0.01427 -0.03211 32.68375 36.23059 -49.11133 0.70938 10.66902 -7.59243 -77.44531 -8.39413 -61.76870 -37.24261 36.16074 -86.51968 15.96420 6.60710 -11.53430 38.02094 3.13842 -16.27271 59.84623 -43.65207 54.97800 11.51796 25.54136 89.51036 16.53800 9.55926 6.20809 36.51878 28.28564 -48.13635 -21.27427 1.08355 61.33514 -23.30685 -0.01047 0.00291 25.77267 -13.79129 -73.17522 -68.77574 -33.83322 -57.88510 100.18320 63.73013 -78.78962 -19.31911 0.06343 -0.22293 3.34949 6.69911 10.98164 
33.03512 94.92870 -8.86166 7.85838 56.08148 -150.50183 13.60797 27.09895 -8.74561 0.00757 0.01607 -0.02790 32.01780 35.94678 -49.62938 1.14854 12.24737 -7.91759 -82.75149 -8.46087 -67.09081 -38.26831 36.96189 -81.90835 19.26311 10.17384 -27.24417 39.81362 3.69761 -18.42922 61.53359 -44.14632 63.27722 12.31836 26.24950 86.07608 9.90886 21.08509 19.39202 38.33308 29.99709 -49.79906 -22.24946 2.52444 61.69769 -22.98911 -0.00705 0.00251 24.27550 -15.95377 -73.70627 -79.28171 -36.31569 -59.86013 90.60941 58.99819 -70.43486 -15.35890 0.05575 -0.48426 6.16903 8.65702 9.16510 
33.14871 94.71937 -10.14095 6.16641 58.18558 -148.81984 11.81096 26.84542 -8.09169 0.01163 0.02214 -0.02314 30.41889 35.10466 -49.45687 1.78825 14.02987 -8.13023 -85.83601 -8.33704 -69.91819 -38.81665 37.79836 -79.08295 14.33144 7.34800 -13.51594 41.53522 4.65607 -20.08780 62.53047 -44.62035 67.68736 12.66105 27.00596 84.56530 13.11596 11.38424 11.35485 40.29251 31.58115 -51.45000 -23.27026 4.07586 62.02669 -22.72414 -0.00517 0.00243 22.71963 -18.10585 -74.27592 -88.07799 -38.89143 -60.06223 80.17381 53.71656 -62.72962 -8.66222 -0.01077 -0.84861 8.69250 10.88223 2.49164 
